# xmcd
# 
# Track frame offsets:
#     150
#     13290
#     25475
#     38795
#     52703
#     65169
#     78206
#     90943
#     104595
#     115995
#     128672
#     142397
#     155705
#     168269
#     181260
#     194348
#     207672
#     218453
#     231537
#     245226
#     257453
#     269698
#     282956
# 
# Disc length: 3940
# 
# Revision: 1
# Processed by: cddbd v1.5.2PL0 Copyright (c) Steve Scherf et al.
# Submitted via: fre:ac v1.0.17
# 
DISCID=5b0f6217
DTITLE=Moon Mullican And The Showboys - Showboy Special - The Early King Sides
DYEAR=0
DGENRE=Country
TTITLE0=The Lonesome Hearted Blues
TTITLE1=It's A Sin To Love You Like I Do
TTITLE2=Showboy Special
TTITLE3=Let Me Rock You Baby
TTITLE4=Moonshine Polka
TTITLE5=Shoot The Moon
TTITLE6=I Didn't Think You'd Ever Really Go
TTITLE7=Everyone Knows That I'm Lonely
TTITLE8=Don't Ever Take My Picture Down
TTITLE9=You Had Your Way
TTITLE10=When A Soldier Knocks And Finds Nobody Home
TTITLE11=What Have I Done That Made You Leave
TTITLE12=Worries On My Mind
TTITLE13=I Can't Love You
TTITLE14=New Milk Cow Blues
TTITLE15=New Pretty Blonde (Jole Blon)
TTITLE16=There's A Little Bit Of Heaven Everywhere
TTITLE17=I've Got Nobody But You
TTITLE18=There's A Chill On The Hill Tonight
TTITLE19=Columbus Stockade Blues
TTITLE20=Jole Blon's Sister
TTITLE21=I'm Gonna Move Home Bye And Bye
TTITLE22=Foggy River (alternate take)
EXTD=
EXTT0=
EXTT1=
EXTT2=
EXTT3=
EXTT4=
EXTT5=
EXTT6=
EXTT7=
EXTT8=
EXTT9=
EXTT10=
EXTT11=
EXTT12=
EXTT13=
EXTT14=
EXTT15=
EXTT16=
EXTT17=
EXTT18=
EXTT19=
EXTT20=
EXTT21=
EXTT22=
PLAYORDER=
